<mxfile host="Electron" agent="Mozilla/5.0 (Windows NT 10.0; Win64; x64) AppleWebKit/537.36 (KHTML, like Gecko) draw.io/26.2.15 Chrome/134.0.6998.205 Electron/35.2.1 Safari/537.36" version="26.2.15" pages="2">
  <diagram id="2MCXsC6ZQOwusDFOl6WS" name="Estructura">
    <mxGraphModel dx="690" dy="521" grid="1" gridSize="10" guides="1" tooltips="1" connect="1" arrows="1" fold="1" page="1" pageScale="1" pageWidth="1920" pageHeight="1200" math="0" shadow="0">
      <root>
        <mxCell id="8J6M1B2ExMwtmFCH5wWR-0" />
        <mxCell id="8J6M1B2ExMwtmFCH5wWR-1" parent="8J6M1B2ExMwtmFCH5wWR-0" />
        <mxCell id="9hdfe1csC_9JH_6lKlNv-0" value="ESTRUCTURA" style="swimlane;childLayout=stackLayout;horizontal=1;startSize=30;horizontalStack=0;rounded=1;fontSize=14;fontStyle=0;strokeWidth=2;resizeParent=0;resizeLast=1;shadow=0;dashed=0;align=center;" parent="8J6M1B2ExMwtmFCH5wWR-1" vertex="1">
          <mxGeometry x="70" y="60" width="1790" height="1030" as="geometry" />
        </mxCell>
        <mxCell id="9hdfe1csC_9JH_6lKlNv-2" value="&lt;div style=&quot;font-size: 13px&quot;&gt;&lt;font style=&quot;font-size: 13px&quot;&gt;Venta de entradas&lt;/font&gt;&lt;/div&gt;&lt;div style=&quot;font-size: 13px&quot;&gt;&lt;font style=&quot;font-size: 13px&quot;&gt;&lt;span&gt;&#x9;&lt;/span&gt;ID_Venta (PK)&lt;/font&gt;&lt;/div&gt;&lt;div style=&quot;font-size: 13px&quot;&gt;&lt;font style=&quot;font-size: 13px&quot;&gt;&lt;span&gt;&#x9;&lt;/span&gt;ID_Funcion (FK)&lt;/font&gt;&lt;/div&gt;&lt;div style=&quot;font-size: 13px&quot;&gt;&lt;font style=&quot;font-size: 13px&quot;&gt;&lt;span&gt;&#x9;&lt;/span&gt;ID_Cliente (FK)&lt;/font&gt;&lt;/div&gt;&lt;div style=&quot;font-size: 13px&quot;&gt;&lt;font style=&quot;font-size: 13px&quot;&gt;&lt;span&gt;&#x9;&lt;/span&gt;ID_Promoción (FK)&lt;/font&gt;&lt;/div&gt;&lt;div style=&quot;font-size: 13px&quot;&gt;&lt;font style=&quot;font-size: 13px&quot;&gt;&lt;span&gt;&#x9;&lt;/span&gt;Cantidad de entradas&lt;/font&gt;&lt;/div&gt;&lt;div style=&quot;font-size: 13px&quot;&gt;&lt;font style=&quot;font-size: 13px&quot;&gt;&lt;span&gt;&#x9;&lt;/span&gt;Monto total&lt;/font&gt;&lt;/div&gt;&lt;div style=&quot;font-size: 13px&quot;&gt;&lt;span&gt;&lt;font style=&quot;font-size: 13px&quot;&gt;&#x9;&lt;/font&gt;&lt;/span&gt;&lt;/div&gt;&lt;div style=&quot;font-size: 13px&quot;&gt;&lt;font style=&quot;font-size: 13px&quot;&gt;&lt;br&gt;&lt;/font&gt;&lt;/div&gt;&lt;div style=&quot;font-size: 13px&quot;&gt;&lt;font style=&quot;font-size: 13px&quot;&gt;Empleado&lt;/font&gt;&lt;/div&gt;&lt;div style=&quot;font-size: 13px&quot;&gt;&lt;font style=&quot;font-size: 13px&quot;&gt;&lt;span&gt;&#x9;&lt;/span&gt;ID_Empleado (PK)&lt;/font&gt;&lt;/div&gt;&lt;div style=&quot;font-size: 13px&quot;&gt;&lt;font style=&quot;font-size: 13px&quot;&gt;&lt;span&gt;&#x9;&lt;/span&gt;ID_Cine (FK)&lt;/font&gt;&lt;/div&gt;&lt;div style=&quot;font-size: 13px&quot;&gt;&lt;font style=&quot;font-size: 13px&quot;&gt;&lt;span&gt;&#x9;&lt;/span&gt;Nombre&lt;/font&gt;&lt;/div&gt;&lt;div style=&quot;font-size: 13px&quot;&gt;&lt;font style=&quot;font-size: 13px&quot;&gt;&lt;span&gt;&#x9;&lt;/span&gt;Cargo&lt;/font&gt;&lt;/div&gt;&lt;div style=&quot;font-size: 13px&quot;&gt;&lt;font style=&quot;font-size: 13px&quot;&gt;&lt;span&gt;&#x9;&lt;/span&gt;Horario laboral&lt;/font&gt;&lt;/div&gt;&lt;div style=&quot;font-size: 13px&quot;&gt;&lt;font style=&quot;font-size: 13px&quot;&gt;&lt;span&gt;&#x9;&lt;/span&gt;Sueldo&lt;/font&gt;&lt;/div&gt;&lt;div style=&quot;font-size: 13px&quot;&gt;&lt;font style=&quot;font-size: 13px&quot;&gt;&lt;br&gt;&lt;/font&gt;&lt;/div&gt;&lt;div style=&quot;font-size: 13px&quot;&gt;&lt;font style=&quot;font-size: 13px&quot;&gt;Cliente&lt;/font&gt;&lt;/div&gt;&lt;div style=&quot;font-size: 13px&quot;&gt;&lt;font style=&quot;font-size: 13px&quot;&gt;&lt;span&gt;&#x9;&lt;/span&gt;ID_Cliente (PK)&lt;/font&gt;&lt;/div&gt;&lt;div style=&quot;font-size: 13px&quot;&gt;&lt;font style=&quot;font-size: 13px&quot;&gt;&lt;span&gt;&#x9;&lt;/span&gt;ID_Promoción (FK)&lt;/font&gt;&lt;/div&gt;&lt;div style=&quot;font-size: 13px&quot;&gt;&lt;font style=&quot;font-size: 13px&quot;&gt;&lt;span&gt;&#x9;&lt;/span&gt;Nombre&lt;/font&gt;&lt;/div&gt;&lt;div style=&quot;font-size: 13px&quot;&gt;&lt;font style=&quot;font-size: 13px&quot;&gt;&lt;span&gt;&#x9;&lt;/span&gt;Correo electrónico&lt;/font&gt;&lt;/div&gt;&lt;div style=&quot;font-size: 13px&quot;&gt;&lt;font style=&quot;font-size: 13px&quot;&gt;&lt;span&gt;&#x9;&lt;/span&gt;Historial de compras&lt;/font&gt;&lt;/div&gt;&lt;div style=&quot;font-size: 13px&quot;&gt;&lt;font style=&quot;font-size: 13px&quot;&gt;&lt;br&gt;&lt;/font&gt;&lt;/div&gt;&lt;div style=&quot;font-size: 13px&quot;&gt;&lt;font style=&quot;font-size: 13px&quot;&gt;Ganancias&lt;/font&gt;&lt;/div&gt;&lt;div style=&quot;font-size: 13px&quot;&gt;&lt;font style=&quot;font-size: 13px&quot;&gt;&lt;span&gt;&#x9;&lt;/span&gt;ID_Ganancia (PK)&lt;/font&gt;&lt;/div&gt;&lt;div style=&quot;font-size: 13px&quot;&gt;&lt;font style=&quot;font-size: 13px&quot;&gt;&lt;span&gt;&#x9;&lt;/span&gt;ID_Cine (FK)&lt;/font&gt;&lt;/div&gt;&lt;div style=&quot;font-size: 13px&quot;&gt;&lt;font style=&quot;font-size: 13px&quot;&gt;&lt;span&gt;&#x9;&lt;/span&gt;Fecha&lt;/font&gt;&lt;/div&gt;&lt;div style=&quot;font-size: 13px&quot;&gt;&lt;font style=&quot;font-size: 13px&quot;&gt;&lt;span&gt;&#x9;&lt;/span&gt;Total ingresos&lt;/font&gt;&lt;/div&gt;&lt;div style=&quot;font-size: 13px&quot;&gt;&lt;font style=&quot;font-size: 13px&quot;&gt;&lt;span&gt;&#x9;&lt;/span&gt;Total gastos&lt;/font&gt;&lt;/div&gt;&lt;div style=&quot;font-size: 13px&quot;&gt;&lt;font style=&quot;font-size: 13px&quot;&gt;&lt;span&gt;&#x9;&lt;/span&gt;Beneficio neto&lt;/font&gt;&lt;/div&gt;&lt;div style=&quot;font-size: 13px&quot;&gt;&lt;font style=&quot;font-size: 13px&quot;&gt;&lt;br&gt;&lt;/font&gt;&lt;/div&gt;&lt;div style=&quot;font-size: 13px&quot;&gt;&lt;font style=&quot;font-size: 13px&quot;&gt;Comprobante de compra&lt;/font&gt;&lt;/div&gt;&lt;div style=&quot;font-size: 13px&quot;&gt;&lt;font style=&quot;font-size: 13px&quot;&gt;&lt;span&gt;&#x9;&lt;/span&gt;ID_Comprobante (PK)&lt;/font&gt;&lt;/div&gt;&lt;div style=&quot;font-size: 13px&quot;&gt;&lt;font style=&quot;font-size: 13px&quot;&gt;&lt;span&gt;&#x9;&lt;/span&gt;ID_Venta (FK)&lt;/font&gt;&lt;/div&gt;&lt;div style=&quot;font-size: 13px&quot;&gt;&lt;font style=&quot;font-size: 13px&quot;&gt;&lt;span&gt;&#x9;&lt;/span&gt;Fecha y hora&lt;/font&gt;&lt;/div&gt;&lt;div style=&quot;font-size: 13px&quot;&gt;&lt;font style=&quot;font-size: 13px&quot;&gt;&lt;span&gt;&#x9;&lt;/span&gt;Monto total&lt;/font&gt;&lt;/div&gt;&lt;div style=&quot;font-size: 13px&quot;&gt;&lt;font style=&quot;font-size: 13px&quot;&gt;&lt;span&gt;&#x9;&lt;/span&gt;Método de pago&lt;/font&gt;&lt;/div&gt;&lt;div style=&quot;font-size: 13px&quot;&gt;&lt;font style=&quot;font-size: 13px&quot;&gt;&lt;br&gt;&lt;/font&gt;&lt;/div&gt;&lt;div style=&quot;font-size: 13px&quot;&gt;&lt;font style=&quot;font-size: 13px&quot;&gt;Método de pago&lt;/font&gt;&lt;/div&gt;&lt;div style=&quot;font-size: 13px&quot;&gt;&lt;font style=&quot;font-size: 13px&quot;&gt;&lt;span&gt;&#x9;&lt;/span&gt;ID_Pago (PK)&lt;/font&gt;&lt;/div&gt;&lt;div style=&quot;font-size: 13px&quot;&gt;&lt;font style=&quot;font-size: 13px&quot;&gt;&lt;span&gt;&#x9;&lt;/span&gt;Tipo de pago (efectivo, tarjeta, transferencia)&lt;/font&gt;&lt;/div&gt;&lt;div style=&quot;font-size: 13px&quot;&gt;&lt;font style=&quot;font-size: 13px&quot;&gt;&lt;span&gt;&#x9;&lt;/span&gt;Detalles del pago&lt;/font&gt;&lt;/div&gt;&lt;div style=&quot;font-size: 13px&quot;&gt;&lt;font style=&quot;font-size: 13px&quot;&gt;&lt;span&gt;&#x9;&lt;/span&gt;ID_Promoción (FK)&lt;/font&gt;&lt;/div&gt;&lt;div style=&quot;font-size: 13px&quot;&gt;&lt;font style=&quot;font-size: 13px&quot;&gt;&lt;br&gt;&lt;/font&gt;&lt;/div&gt;&lt;div style=&quot;font-size: 13px&quot;&gt;&lt;font style=&quot;font-size: 13px&quot;&gt;Promoción&lt;/font&gt;&lt;/div&gt;&lt;div style=&quot;font-size: 13px&quot;&gt;&lt;font style=&quot;font-size: 13px&quot;&gt;&lt;span&gt;&#x9;&lt;/span&gt;ID_Promoción (PK)&lt;/font&gt;&lt;/div&gt;&lt;div style=&quot;font-size: 13px&quot;&gt;&lt;font style=&quot;font-size: 13px&quot;&gt;&lt;span&gt;&#x9;&lt;/span&gt;ID_Funcion (FK)&lt;/font&gt;&lt;/div&gt;&lt;div style=&quot;font-size: 13px&quot;&gt;&lt;font style=&quot;font-size: 13px&quot;&gt;&lt;span&gt;&#x9;&lt;/span&gt;ID_Cliente (FK)&lt;/font&gt;&lt;/div&gt;&lt;div style=&quot;font-size: 13px&quot;&gt;&lt;font style=&quot;font-size: 13px&quot;&gt;&lt;span&gt;&#x9;&lt;/span&gt;ID_Pago (FK)&lt;/font&gt;&lt;/div&gt;&lt;div style=&quot;font-size: 13px&quot;&gt;&lt;font style=&quot;font-size: 13px&quot;&gt;&lt;span&gt;&#x9;&lt;/span&gt;Descripción&lt;/font&gt;&lt;/div&gt;&lt;div style=&quot;font-size: 13px&quot;&gt;&lt;font style=&quot;font-size: 13px&quot;&gt;&lt;span&gt;&#x9;&lt;/span&gt;Descuento (%)&lt;/font&gt;&lt;/div&gt;&lt;div style=&quot;font-size: 13px&quot;&gt;&lt;font style=&quot;font-size: 13px&quot;&gt;&lt;span&gt;&#x9;&lt;/span&gt;Fecha de inicio&lt;/font&gt;&lt;/div&gt;&lt;div style=&quot;font-size: 13px&quot;&gt;&lt;font style=&quot;font-size: 13px&quot;&gt;&lt;span&gt;&#x9;&lt;/span&gt;Fecha de fin&lt;/font&gt;&lt;/div&gt;&lt;div style=&quot;font-size: 13px&quot;&gt;&lt;font style=&quot;font-size: 13px&quot;&gt;&lt;span&gt;&#x9;&lt;/span&gt;Condiciones&lt;/font&gt;&lt;/div&gt;&lt;div style=&quot;font-size: 13px&quot;&gt;&lt;font style=&quot;font-size: 13px&quot;&gt;&lt;br&gt;&lt;/font&gt;&lt;/div&gt;&lt;div style=&quot;font-size: 13px&quot;&gt;&lt;font style=&quot;font-size: 13px&quot;&gt;Relaciones:&lt;/font&gt;&lt;/div&gt;&lt;div style=&quot;font-size: 13px&quot;&gt;&lt;font style=&quot;font-size: 13px&quot;&gt;Un cine tiene varias salas.&lt;/font&gt;&lt;/div&gt;&lt;div style=&quot;font-size: 13px&quot;&gt;&lt;font style=&quot;font-size: 13px&quot;&gt;Una sala tiene varios asientos y puede proyectar varias funciones.&lt;/font&gt;&lt;/div&gt;&lt;div style=&quot;font-size: 13px&quot;&gt;&lt;font style=&quot;font-size: 13px&quot;&gt;Cada función muestra una película en una sala a una hora específica.&lt;/font&gt;&lt;/div&gt;&lt;div style=&quot;font-size: 13px&quot;&gt;&lt;font style=&quot;font-size: 13px&quot;&gt;Los clientes pueden comprar entradas para distintas funciones.&lt;/font&gt;&lt;/div&gt;&lt;div style=&quot;font-size: 13px&quot;&gt;&lt;font style=&quot;font-size: 13px&quot;&gt;Los empleados trabajan en un cine y tienen horarios y salarios asignados.&lt;/font&gt;&lt;/div&gt;&lt;div style=&quot;font-size: 13px&quot;&gt;&lt;font style=&quot;font-size: 13px&quot;&gt;Cada venta de entradas genera un comprobante de compra con un método de pago asociado.&lt;/font&gt;&lt;/div&gt;&lt;div style=&quot;font-size: 13px&quot;&gt;&lt;font style=&quot;font-size: 13px&quot;&gt;Las ganancias se calculan en función de los ingresos por ventas y los gastos operativos del cine.&lt;/font&gt;&lt;/div&gt;" style="text;html=1;align=left;verticalAlign=middle;resizable=0;points=[];autosize=1;" parent="9hdfe1csC_9JH_6lKlNv-0" vertex="1">
          <mxGeometry y="30" width="1790" height="1000" as="geometry" />
        </mxCell>
      </root>
    </mxGraphModel>
  </diagram>
  <diagram id="BMe1KfHkcuL1QOCvfYGL" name="Enunciado">
    <mxGraphModel dx="723" dy="425" grid="1" gridSize="10" guides="1" tooltips="1" connect="1" arrows="1" fold="1" page="1" pageScale="1" pageWidth="1920" pageHeight="1200" math="0" shadow="0">
      <root>
        <mxCell id="Hz9SvZcJU1_K5NwaoiW0-0" />
        <mxCell id="Hz9SvZcJU1_K5NwaoiW0-1" parent="Hz9SvZcJU1_K5NwaoiW0-0" />
        <mxCell id="Hz9SvZcJU1_K5NwaoiW0-2" value="Enunciado" style="swimlane;childLayout=stackLayout;horizontal=1;startSize=30;horizontalStack=0;rounded=1;fontSize=14;fontStyle=0;strokeWidth=2;resizeParent=0;resizeLast=1;shadow=0;dashed=0;align=center;" vertex="1" parent="Hz9SvZcJU1_K5NwaoiW0-1">
          <mxGeometry x="30" y="30" width="1840" height="1120" as="geometry" />
        </mxCell>
        <mxCell id="Hz9SvZcJU1_K5NwaoiW0-3" value="Una cadena de cines necesita almacenar información sobre sus establecimientos, salas de proyección, funciones, clientes, ventas y promociones. Actualmente, estos datos se registran en distintos documentos.&#xa;&#xa;Cada cine cuenta con un identificador único, un nombre que lo distingue, una ubicación específica y una cantidad de salas disponibles para la proyección de películas. Dentro de cada establecimiento, las salas de proyección están identificadas por un número único, vinculadas a un cine en particular, y se diferencian por su capacidad de &#xa;espectadores, el tipo de tecnología utilizada (2D, 3D, IMAX) y la distribución de los asientos en su interior.&#xa;&#xa;Los asientos dentro de cada sala poseen un número de identificación único, están vinculados a una sala específica y se categorizan según su tipo: normal, VIP o accesible. En cuanto a las películas, cada una de ellas cuenta con un identificador único, título, género, duración, clasificación por edad, sinopsis y una indicación &#xa;sobre si incluye subtítulos o no.&#xa;&#xa;Para la administración de funciones, se registra un identificador único para cada proyección, asociándola a una película y una sala en particular. Además, se almacenan la fecha y hora de la función, el precio de entrada y, en caso de existir, el identificador de una promoción aplicada.&#xa;&#xa;Las ventas de entradas son registradas con un identificador único, vinculándolas a una función específica y al cliente que realiza la compra. También se registra la cantidad de entradas adquiridas, el monto total de la venta y si se ha aplicado alguna promoción al precio final.&#xa;&#xa;Cada cine emplea personal que es identificado con un número único, asociándose al establecimiento en el que trabaja. Para cada empleado, se almacenan su nombre, cargo, horario laboral y sueldo.&#xa;&#xa;Los clientes cuentan con un identificador único y pueden estar asociados a promociones especiales. Se almacenan su nombre, correo electrónico y un historial de compras, permitiendo futuras estrategias de fidelización y descuentos personalizados.&#xa;&#xa;El registro de ganancias es esencial para la administración del negocio. Se asigna un identificador único a cada informe, estableciendo la fecha de registro y detallando los ingresos totales, gastos y beneficio neto del cine en un período específico.&#xa;&#xa;Las compras de los clientes generan comprobantes de pago, cada uno identificado de forma única y vinculado a una venta de entradas. Se almacena la fecha y hora del comprobante, el monto total de la compra y el método de pago utilizado.&#xa;&#xa;Los métodos de pago también son registrados, cada uno con un identificador único y una clasificación según el tipo de transacción (efectivo, tarjeta, transferencia). Se almacenan detalles específicos del pago y si está vinculado a alguna promoción especial.&#xa;&#xa;Las promociones ofrecen beneficios a los clientes y funciones seleccionadas. Cada promoción cuenta con un identificador único y puede estar asociada a una función específica, a clientes recurrentes o a ciertos métodos de pago. Se almacena su descripción, el porcentaje de descuento aplicado, la fecha de inicio y fin, &#xa;y las condiciones necesarias para su aplicación.&#xa;&#xa;Para la gestión eficiente de la cadena de cines, se establecen relaciones clave entre los distintos elementos del sistema. Un cine posee varias salas, y cada sala contiene múltiples asientos y proyecta distintas funciones. Las funciones están asociadas a películas específicas y permiten la compra de entradas por parte de los clientes. &#xa;Cada venta genera un comprobante de pago y está vinculada a un método de pago, con la posibilidad de aplicar promociones. La administración del negocio también contempla el registro de empleados y el cálculo de ganancias, permitiendo un control detallado de cada aspecto operativo del establecimiento." style="align=left;strokeColor=none;fillColor=none;spacingLeft=4;fontSize=12;verticalAlign=top;resizable=0;rotatable=0;part=1;" vertex="1" parent="Hz9SvZcJU1_K5NwaoiW0-2">
          <mxGeometry y="30" width="1840" height="1090" as="geometry" />
        </mxCell>
      </root>
    </mxGraphModel>
  </diagram>
</mxfile>
